# xmcd CD database file
#
# Track frame offsets:
#	150
#	20462
#	41847
#	63030
#	83862
#	102182
#	120252
#	132767
#	146902
#	165845
#	183707
#	201077
#	218250
#	240072
#
# Disc length: 3449 seconds
#
# Revision: 0
# Processed by: cddbd v1.5.2PL0 Copyright (c) Steve Scherf et al.
# Submitted via: CDex 1.70beta2
#
DISCID=ac0d770e
DTITLE=Greg Vail - Sax By Candlelight
DYEAR=1996
DGENRE=Jazz
TTITLE0=How Am I supposed To Live Without You
TTITLE1=Circle Of Life
TTITLE2=Just Once
TTITLE3=Sax By Candlelight
TTITLE4=Since I Fell For You
TTITLE5=Have I Told You Lately That I Love You
TTITLE6=You Are So Beautiful
TTITLE7=Thats What Friends Are For
TTITLE8=When I Fall In LOve
TTITLE9=A Whole New World
TTITLE10=Up Where We Belong
TTITLE11=You've Got A Friend
TTITLE12=You Make Me Feel Brand New
TTITLE13=Colors Of The Wind
EXTD=YEAR: 1996
EXTT0=
EXTT1=
EXTT2=
EXTT3=
EXTT4=
EXTT5=
EXTT6=
EXTT7=
EXTT8=
EXTT9=
EXTT10=
EXTT11=
EXTT12=
EXTT13=
PLAYORDER=
